<svg width="119" height="193" viewBox="0 0 119 193" fill="none" xmlns="http://www.w3.org/2000/svg">
<g clip-path="url(#clip0_162_7)">
<path d="M97.3041 52.6201L95.8153 54.3483C95.5374 54.3085 95.2198 54.2887 94.8427 54.2887H93.8701C92.1828 54.2887 90.6742 54.7058 89.3443 55.56C88.0143 56.4141 87.0219 57.5067 86.3867 58.8773C85.7316 60.2479 85.414 61.7576 85.414 63.4659C85.414 65.0352 85.7118 66.4058 86.3271 67.5778C86.9425 68.7498 87.8555 69.6437 89.0664 70.2595C90.2772 70.8752 91.7064 71.1732 93.354 71.1732C95.0015 71.1732 96.4704 70.8554 97.7606 70.1999C99.0509 69.5443 100.162 68.6703 101.135 67.5579C102.088 66.4455 102.842 65.1742 103.378 63.7639C103.914 62.3535 104.252 60.9432 104.41 59.5527H105.562C105.76 59.9301 105.919 60.4068 106.078 60.963C106.237 61.5192 106.296 62.1747 106.256 62.9494C105.72 64.3797 104.966 65.7503 103.974 67.1011C103.001 68.4518 101.81 69.6238 100.44 70.617C99.0509 71.6102 97.4827 72.4048 95.7161 73.0007C93.9495 73.5966 92.0637 73.8946 90.0787 73.8946C88.4709 73.8946 86.8829 73.7158 85.3346 73.3384C83.7863 72.9808 82.4167 72.3849 81.2455 71.5904C80.0744 70.7759 79.1414 69.7827 78.4269 68.5909C77.7123 67.399 77.355 65.9688 77.355 64.2803C77.355 62.5919 77.7123 61.1617 78.4269 59.8705C79.1414 58.5793 80.1538 57.4272 81.5036 56.3943C82.4961 55.6196 83.7863 54.9442 85.3942 54.3284C86.9822 53.7126 88.6892 53.3153 90.4956 53.1167V52.8187C89.3046 52.5406 88.2724 52.1434 87.3792 51.607C86.4859 51.0707 85.811 50.3754 85.3346 49.5412C84.8582 48.7069 84.62 47.6541 84.62 46.4225C84.6597 44.5354 85.2354 42.9065 86.347 41.5359C87.4585 40.1454 88.9274 39.0728 90.7735 38.2782C92.6195 37.4836 94.6045 37.1062 96.7681 37.1062C98.6539 37.1062 100.202 37.3247 101.393 37.7419C102.604 38.159 103.537 38.6755 104.212 39.2913C104.887 39.907 105.323 40.5427 105.562 41.2181C105.8 41.8935 105.899 42.4894 105.899 43.0257C105.899 43.9395 105.76 44.6943 105.462 45.2704C105.184 45.8464 104.787 46.2834 104.291 46.5615C103.795 46.8595 103.239 46.9985 102.624 46.9985C102.009 46.9985 101.492 46.8794 101.095 46.6211C100.698 46.3629 100.44 46.0451 100.341 45.6478C100.242 45.2505 100.222 44.8334 100.262 44.4162C100.341 44.1182 100.401 43.7408 100.46 43.3237C100.52 42.9065 100.54 42.5092 100.54 42.1716C100.579 41.5558 100.5 40.9996 100.301 40.4632C100.103 39.9468 99.7655 39.5495 99.2692 39.2913C98.773 39.0132 98.0584 38.894 97.1453 38.894C96.2322 38.894 95.3389 39.1721 94.6045 39.7084C93.8701 40.2447 93.2746 40.9598 92.7982 41.8339C92.3218 42.7079 91.9446 43.6415 91.7064 44.595C91.4484 45.5485 91.3293 46.5218 91.3293 47.4753C91.3293 48.9651 91.6469 50.1172 92.3019 50.9316C92.957 51.7461 93.8105 52.1434 94.9023 52.1434C95.3588 52.1434 95.7756 52.1434 96.1131 52.1235C96.4505 52.1235 96.788 52.0639 97.0857 51.9844L97.3239 52.6797L97.3041 52.6201ZM95.3389 63.2275L94.1281 62.3138C94.7434 60.9034 95.4779 59.6321 96.3513 58.5396C97.2247 57.4471 98.1973 56.5731 99.2891 55.9175C100.381 55.262 101.492 54.9442 102.604 54.9442C103.259 54.9442 104.013 54.9442 104.907 54.9641C105.8 54.9641 106.713 55.0237 107.666 55.1031C108.619 55.1826 109.532 55.2223 110.365 55.2223C111.199 55.2223 111.834 55.0634 112.35 54.7654C112.866 54.4675 113.124 53.9907 113.124 53.3749V51.3091C113.124 50.9714 113.085 50.6337 113.005 50.3357L113.7 50.0378C114.117 50.1967 114.494 50.4748 114.792 50.8721C115.09 51.2693 115.229 51.7858 115.189 52.4016C115.149 53.2557 114.931 54.1099 114.534 54.9641C114.137 55.8381 113.581 56.6128 112.886 57.3279C112.191 58.043 111.497 58.6389 110.822 59.1355C110.167 59.5527 109.512 59.8506 108.837 60.0294C108.162 60.2082 107.447 60.2877 106.673 60.2877C105.939 60.2479 105.204 60.2082 104.45 60.1685C103.696 60.1287 102.961 60.089 102.227 60.0493C101.492 60.0096 100.758 59.9897 99.9838 59.9897C99.4082 59.95 98.8524 60.0692 98.3363 60.3274C97.8202 60.6055 97.3041 60.9432 96.788 61.3603C96.2719 61.7775 95.7756 62.3933 95.3191 63.2077L95.3389 63.2275Z" fill="black"/>
<path d="M82.7938 95.9041C82.7938 98.0693 81.0073 99.8173 78.8635 99.7379C78.0695 99.718 77.216 99.6981 76.2831 99.6783C73.4445 99.6187 70.7449 99.5988 68.1645 99.5988H59.4901C56.6912 99.5988 53.7535 99.6981 50.637 99.9166V95.9041C53.2175 95.6856 55.1827 95.4671 56.592 95.2684C57.9815 95.0499 58.9938 94.6526 59.6489 94.0567C60.2841 93.4608 60.5024 92.6265 60.2841 91.5538C59.9665 89.7263 59.371 87.0844 58.5174 83.5883C57.6639 80.1121 56.6912 76.2982 55.6194 72.1664C54.5475 68.0347 53.5351 64.2605 52.5625 60.824C51.9273 60.7247 51.0142 60.6651 49.8232 60.6651H28.3655C27.3531 60.6651 26.5194 60.7247 25.8644 60.824C24.4749 65.9688 23.3236 70.2396 22.4105 73.6165C21.4974 76.9934 20.8027 79.7545 20.3263 81.8999C19.8499 84.0452 19.3933 85.972 18.9566 87.7002C18.5199 89.7462 18.4405 91.2956 18.7184 92.3683C18.9765 93.4409 19.969 94.2156 21.6959 94.6924C23.403 95.1691 26.0827 95.5863 29.7351 95.9041L29.5763 99.9166C27.5318 99.8173 25.2689 99.718 22.748 99.6783C20.227 99.6187 17.6267 99.5988 14.947 99.5988C13.756 99.5988 12.1878 99.6187 10.2028 99.6783C8.21785 99.7379 6.29241 99.7577 4.40667 99.7577C2.52093 99.7577 1.05204 99.8173 -0.0198517 99.9166V95.9041C2.44153 95.6856 4.48607 95.3876 6.09391 95.0102C7.70175 94.6328 9.03169 93.8581 10.1036 92.6861C11.1755 91.5141 12.0886 89.6866 12.8429 87.2234C13.3788 85.7138 14.2125 83.0917 15.344 79.3374C16.4754 75.5831 17.7855 71.1335 19.2742 65.9887C20.7828 60.8439 22.351 55.4408 24.0183 49.8193C25.6857 44.1977 27.234 38.6556 28.6831 33.2526C30.1321 27.8297 31.5018 22.963 32.792 18.6127C34.0822 14.2625 35.035 10.9253 35.6901 8.56145C36.226 6.53531 36.6826 4.92631 37.0597 3.73446C37.4369 2.56248 37.6751 1.43022 37.7743 0.35756H40.99C41.7443 0.35756 42.5184 0.337696 43.3124 0.278104C44.1064 0.218511 44.8409 0.178783 45.4761 0.11919C46.1113 0.059598 46.6472 0.0397339 47.0839 0.0397339C47.8382 2.62207 48.7116 5.87979 49.7438 9.85262C50.7561 13.8254 51.8677 18.136 53.0389 22.804C54.21 27.4721 55.4804 32.3786 56.8103 37.5234C58.1403 42.6682 59.4901 47.7931 60.8399 52.8982C62.1698 58.0033 63.46 62.87 64.6907 67.5381C65.9214 72.2062 67.0529 76.4968 68.0652 80.41C69.0776 84.3233 70.0105 87.6207 70.8839 90.3024C71.3007 91.5936 71.8962 92.6066 72.6505 93.3615C73.4048 94.1163 74.576 94.6725 76.1838 95.0499C77.7917 95.4273 79.995 95.7253 82.774 95.9438L82.7938 95.9041ZM39.8784 9.81289C38.8065 13.885 37.5957 18.4538 36.2657 23.4993C34.9159 28.5448 33.5066 33.769 31.998 39.192C30.4894 44.6149 29.0007 50.0576 27.4921 55.5203C28.1273 55.5203 28.9411 55.5401 29.8939 55.5997C30.8666 55.6593 32.1369 55.6792 33.7448 55.6792H45.7143C47.2626 55.6792 48.5329 55.6593 49.4857 55.5997C50.4584 55.5401 51.034 55.5203 51.2524 55.5203C50.3988 51.9845 49.4857 48.1904 48.5131 44.1779C47.5405 40.1454 46.5281 36.113 45.4562 32.021C44.3843 27.9489 43.372 23.976 42.3993 20.1224C41.4267 16.2687 40.5731 12.8322 39.8188 9.83276L39.8784 9.81289Z" fill="black"/>
<path d="M67.5491 161.793L71.4 161.317C71.6183 163.899 71.9359 166.541 72.3726 169.282C72.8093 172.023 73.4247 174.566 74.2187 176.93C75.0127 179.294 76.0052 181.221 77.1962 182.73C78.9032 184.657 81.0867 186.167 83.7069 187.239C86.3271 188.312 89.0862 188.848 91.9843 188.848C94.8824 188.848 97.4827 188.133 100.103 186.683C102.723 185.233 104.867 183.048 106.534 180.088C108.202 177.148 109.035 173.354 109.035 168.746C109.035 164.992 108.202 161.615 106.534 158.615C104.867 155.616 102.703 153.192 100.024 151.385C98.634 150.411 97.2644 149.478 95.9146 148.564C94.5648 147.65 93.2547 146.736 91.9843 145.823C90.6941 144.909 89.3244 143.975 87.8754 143.002C86.4264 142.029 84.7987 140.976 82.9725 139.784C78.4666 136.566 75.0325 132.951 72.6902 128.918C70.3281 124.886 69.157 120.317 69.157 115.152C69.157 111.617 69.7723 108.26 71.003 105.101C72.2337 101.943 73.9805 99.2214 76.2235 96.9767C78.4666 94.7321 81.1264 92.9642 84.1833 91.673C87.2402 90.3818 90.6345 89.7462 94.3862 89.7462C96.9666 89.7462 99.2692 89.9845 101.294 90.4613C103.319 90.938 105.105 91.5935 106.594 92.3881C108.102 93.1827 109.274 94.0765 110.127 95.0499C110.544 94.5136 111.04 93.6594 111.576 92.4675C112.112 91.2956 112.489 90.3222 112.708 89.5674L116.4 90.362C116.181 92.2888 115.963 94.7321 115.764 97.6918C115.546 100.652 115.387 103.889 115.288 107.425C115.189 110.961 115.07 114.497 114.97 118.053L110.623 118.37C110.405 116.126 110.107 113.921 109.73 111.775C109.353 109.63 108.837 107.584 108.202 105.657C107.566 103.731 106.693 102.022 105.621 100.513C104.113 98.1487 102.326 96.4602 100.242 95.4472C98.1576 94.4341 95.9344 93.9176 93.5723 93.9176C89.1855 93.9176 85.553 95.5465 82.7144 98.8241C79.8759 102.102 78.4467 106.631 78.4467 112.411C78.4467 114.338 78.6849 116.344 79.1613 118.45C79.6377 120.536 80.6897 122.661 82.2976 124.806C83.9054 126.952 86.0492 128.998 88.7289 130.925C92.163 133.169 95.0809 135.056 97.4827 136.546C99.8846 138.056 101.989 139.426 103.755 140.658C105.522 141.89 107.11 143.101 108.499 144.273C110.425 145.664 112.172 147.352 113.72 149.339C115.268 151.325 116.539 153.609 117.491 156.172C118.464 158.754 118.94 161.793 118.94 165.349C118.94 169.54 118.186 173.334 116.697 176.771C115.189 180.207 113.184 183.127 110.663 185.531C108.142 187.935 105.204 189.802 101.83 191.073C98.4554 192.364 94.8427 193 90.972 193C87.4387 193 84.0841 192.642 80.9279 191.947C77.7718 191.252 75.0325 190.477 72.7299 189.623C70.4274 188.769 68.621 188.113 67.3506 187.696C67.3506 185.65 67.3705 183.028 67.43 179.81C67.4896 176.592 67.5094 173.315 67.5094 169.997V161.793H67.5491Z" fill="black"/>
</g>
<defs>
<clipPath id="clip0_162_7">
<rect width="119" height="193" fill="white"/>
</clipPath>
</defs>
</svg>
